<svg xmlns="http://www.w3.org/2000/svg" width="86" height="48" fill="none"><path fill="#767C76" d="M72.755 18.213c3.315 0 6.045 1.014 8.19 3.003 2.145 1.989 3.237 4.524 3.237 7.605 0 3.081-1.092 5.616-3.276 7.605-2.145 1.989-4.875 3.003-8.15 3.003-3.316 0-6.085-.975-8.23-2.964-2.145-1.989-3.237-4.563-3.237-7.644 0-3.081 1.092-5.616 3.237-7.605 2.145-1.989 4.914-3.003 8.23-3.003Zm0 3.042c-2.379 0-4.329.702-5.85 2.106-1.52 1.404-2.262 3.237-2.262 5.46s.741 4.056 2.262 5.46 3.471 2.106 5.85 2.106c2.34 0 4.251-.702 5.772-2.106s2.262-3.237 2.262-5.46-.74-4.056-2.262-5.46c-1.52-1.404-3.432-2.106-5.772-2.106Zm6.435-8.697v2.808H66.242v-2.808H79.19ZM52.523 10.998h3.51V39h-3.51V10.998ZM46.056 15.054h-3.822v-4.056h3.822v4.056Zm-3.666 3.549h3.51V39h-3.51V18.603ZM31.81 14.391 19.72 39H16.6L4.47 14.391V39H.845V10.998h5.81L18.2 34.554l11.583-23.556h5.655V39H31.81V14.391Z"/></svg>