<svg xmlns="http://www.w3.org/2000/svg" width="40" height="40" fill="none"><g clip-path="url(#a)"><path fill="#0046EB" d="M0 16c0-5.6 0-8.4 1.09-10.54a10 10 0 0 1 4.37-4.37C7.6 0 10.4 0 16 0h8c5.6 0 8.4 0 10.54 1.09a10 10 0 0 1 4.37 4.37C40 7.6 40 10.4 40 16v8c0 5.6 0 8.4-1.09 10.54a10.001 10.001 0 0 1-4.37 4.37C32.4 40 29.6 40 24 40h-8c-5.6 0-8.4 0-10.54-1.09a10 10 0 0 1-4.37-4.37C0 32.4 0 29.6 0 24v-8Z"/><g clip-path="url(#b)"><path fill="#fff" d="M19.565 7.464a.972.972 0 0 1 1.018.091l7.778 5.834a.973.973 0 0 1 0 1.556L21.621 20l6.74 5.055a.973.973 0 0 1 0 1.556l-7.778 5.834a.973.973 0 0 1-1.555-.778v-9.723l-6.223 4.667a.973.973 0 0 1-1.166-1.556L18.379 20l-6.74-5.055-.077-.064a.972.972 0 0 1 1.16-1.548l.083.056 6.223 4.666V8.333c0-.368.208-.705.537-.87Zm1.407 22.258 5.185-3.889-5.185-3.889v7.778Zm0-11.667 5.185-3.888-5.185-3.89v7.778Z"/></g></g><defs><clipPath id="a"><path fill="#fff" d="M0 0h40v40H0z"/></clipPath><clipPath id="b"><path fill="#fff" d="M4.444 4.444h31.111v31.111H4.445z"/></clipPath></defs></svg>