<svg xmlns="http://www.w3.org/2000/svg" width="24" height="24" fill="none"><g clip-path="url(#a)"><path fill="#171917" d="M14.4 0c3.36 0 5.04 0 6.324.654a6 6 0 0 1 2.622 2.622C24 4.56 24 6.24 24 9.6v4.8c0 3.36 0 5.04-.654 6.324a6 6 0 0 1-2.622 2.622C19.44 24 17.76 24 14.4 24H9.6c-3.36 0-5.04 0-6.324-.654a6 6 0 0 1-2.622-2.622C0 19.44 0 17.76 0 14.4V9.6c0-3.36 0-5.04.654-6.324A6 6 0 0 1 3.276.654C4.56 0 6.24 0 9.6 0h4.8Zm-2.05 4.533a.584.584 0 0 0-.933.467v5.833l-3.733-2.8L7.634 8a.584.584 0 0 0-.697.929l.046.038L11.027 12l-4.044 3.033a.584.584 0 0 0 .7.934l3.734-2.8V19a.584.584 0 0 0 .933.467l4.667-3.5a.584.584 0 0 0 0-.934L12.973 12l4.044-3.033a.584.584 0 0 0 0-.934l-4.667-3.5ZM15.694 15.5l-3.111 2.333v-4.666l3.111 2.333Zm0-7-3.111 2.333V6.167L15.694 8.5Z"/></g><defs><clipPath id="a"><path fill="#fff" d="M0 0h24v24H0z"/></clipPath></defs></svg>