<svg xmlns="http://www.w3.org/2000/svg" width="24" height="24" fill="none"><g clip-path="url(#a)"><path fill="#171917" d="M5.25 3a.75.75 0 0 1 .75.75v6.094a3.001 3.001 0 0 1 0 5.81v4.596a.75.75 0 0 1-1.5 0v-4.595a3 3 0 0 1 0-5.81V3.75A.75.75 0 0 1 5.25 3ZM12 3a.75.75 0 0 1 .75.75v1.594a3.001 3.001 0 0 1 0 5.81v9.096a.75.75 0 0 1-1.5 0v-9.095a3 3 0 0 1 0-5.81V3.75A.75.75 0 0 1 12 3Zm6.75 0a.75.75 0 0 1 .75.75v9.095a3.001 3.001 0 0 1 0 5.81v1.595a.75.75 0 0 1-1.5 0v-1.595a3 3 0 0 1 0-5.81V3.75a.75.75 0 0 1 .75-.75Zm0 11.25a1.5 1.5 0 1 0 0 3 1.5 1.5 0 0 0 0-3Zm-13.5-3a1.5 1.5 0 1 0 0 3 1.5 1.5 0 0 0 0-3ZM12 6.75a1.5 1.5 0 1 0 0 3 1.5 1.5 0 0 0 0-3Z"/></g><defs><clipPath id="a"><path fill="#fff" d="M0 0h24v24H0z"/></clipPath></defs></svg>