<svg xmlns="http://www.w3.org/2000/svg" width="40" height="40" fill="none"><path fill="#1D1D1F" d="M0 16c0-5.6 0-8.4 1.09-10.54a10 10 0 0 1 4.37-4.37C7.6 0 10.4 0 16 0h8c5.6 0 8.4 0 10.54 1.09a10 10 0 0 1 4.37 4.37C40 7.6 40 10.4 40 16v8c0 5.6 0 8.4-1.09 10.54a10.001 10.001 0 0 1-4.37 4.37C32.4 40 29.6 40 24 40h-8c-5.6 0-8.4 0-10.54-1.09a10 10 0 0 1-4.37-4.37C0 32.4 0 29.6 0 24v-8Z"/><path fill="#F7F7F7" fill-rule="evenodd" d="M14.084 29.065c2.8 0 4.553-2.117 4.553-5.482 0-3.377-1.753-5.494-4.553-5.494S9.53 20.206 9.53 23.583c0 3.353 1.752 5.482 4.553 5.482ZM22.4 12.671c.091-.156.141-.336.141-.53v-.425l-1.223.082c-.485.033-.781.164-.915.392a.677.677 0 0 0-.085.35c0 .47.388.729.93.729.517 0 .943-.236 1.152-.598Zm4.638 1.407c-1.46 0-2.354-.99-2.354-2.613.001-1.587.895-2.576 2.354-2.564 1.258 0 2.012.73 2.14 1.694h-.964c-.106-.482-.518-.859-1.176-.859-.823 0-1.33.648-1.33 1.73 0 1.094.506 1.765 1.33 1.765.623 0 1.047-.294 1.177-.836h.964c-.13.989-.906 1.683-2.141 1.683Zm-15.8-.095V8.995l.953-.012v.8h.071c.21-.565.717-.894 1.387-.894.683 0 1.154.353 1.377.894h.082c.247-.54.824-.894 1.518-.894 1.012 0 1.6.612 1.6 1.647v3.447h-.988v-3.2c0-.695-.318-1.024-.965-1.024s-1.058.47-1.058 1.07v3.154h-.966v-3.307c0-.564-.376-.917-.964-.917-.6 0-1.06.517-1.06 1.164v3.06h-.987Zm2.847 2.529c3.882 0 6.306 2.73 6.306 7.07 0 4.33-2.424 7.06-6.306 7.06s-6.306-2.718-6.306-7.06c0-4.34 2.424-7.07 6.306-7.07Zm8.423-3.236c-.306.507-.847.789-1.506.789-.964 0-1.67-.577-1.659-1.471 0-.906.67-1.423 1.86-1.494l1.352-.082v-.435c0-.553-.352-.86-1.023-.86-.553 0-.941.2-1.047.565h-.953c.106-.834.906-1.387 2.047-1.387 1.259 0 1.965.623 1.965 1.67v3.412h-.953v-.707h-.083Zm5.306 9.553c2.847.624 3.977 1.754 3.977 3.694 0 2.53-1.988 4.118-5.036 4.118-2.987 0-4.976-1.529-5.14-3.893h1.705c.2 1.47 1.565 2.364 3.53 2.364 1.846 0 3.2-.977 3.2-2.318 0-1.141-.765-1.906-2.66-2.318l-1.517-.329c-2.741-.6-3.93-1.847-3.93-3.788 0-2.247 1.989-3.836 4.824-3.836 2.73 0 4.694 1.636 4.776 3.953h-1.705c-.154-1.506-1.33-2.423-3.118-2.423-1.706 0-3.024.835-3.024 2.223 0 1.071.73 1.812 2.6 2.224l1.518.33Z" clip-rule="evenodd"/></svg>