<svg xmlns="http://www.w3.org/2000/svg" width="24" height="24" fill="none"><path fill="#171917" d="M1.5 9.9c0-2.94 0-4.41.572-5.533a5.25 5.25 0 0 1 2.295-2.295C5.49 1.5 6.96 1.5 9.9 1.5h4.2c2.94 0 4.41 0 5.533.572a5.25 5.25 0 0 1 2.295 2.295C22.5 5.49 22.5 6.96 22.5 9.9v4.2c0 2.94 0 4.41-.572 5.533a5.25 5.25 0 0 1-2.295 2.295c-1.123.572-2.593.572-5.533.572H9.9c-2.94 0-4.41 0-5.533-.572a5.25 5.25 0 0 1-2.295-2.295C1.5 18.51 1.5 17.04 1.5 14.1V9.9Z"/><path fill="#fff" fill-rule="evenodd" d="M8.894 16.76c1.47 0 2.39-1.112 2.39-2.879 0-1.773-.92-2.884-2.39-2.884-1.47 0-2.39 1.111-2.39 2.884 0 1.76.92 2.878 2.39 2.878Zm4.366-8.607a.548.548 0 0 0 .074-.28v-.222l-.642.043c-.255.018-.41.086-.48.206a.356.356 0 0 0-.046.184c0 .246.204.382.489.382.271 0 .495-.123.605-.313Zm2.434.738c-.766 0-1.235-.52-1.235-1.372 0-.833.47-1.352 1.235-1.346.661 0 1.057.383 1.124.89h-.506c-.056-.253-.272-.451-.618-.451-.432 0-.698.34-.698.908 0 .574.266.926.698.926.328 0 .55-.154.618-.438h.506c-.067.519-.475.883-1.124.883ZM7.4 8.84V6.222l.501-.006v.42h.037c.11-.296.376-.47.728-.47.359 0 .606.186.723.47h.043c.13-.284.433-.47.797-.47.532 0 .84.322.84.865v1.81h-.518v-1.68c0-.365-.168-.537-.507-.537-.34 0-.556.247-.556.562V8.84h-.506V7.105c0-.296-.198-.482-.507-.482-.315 0-.556.272-.556.612V8.84H7.4Zm1.495 1.328c2.038 0 3.31 1.433 3.31 3.712 0 2.273-1.272 3.706-3.31 3.706-2.038 0-3.31-1.427-3.31-3.706 0-2.28 1.272-3.712 3.31-3.712Zm4.422-1.699c-.16.266-.444.414-.79.414-.507 0-.877-.303-.871-.772 0-.476.352-.747.976-.784l.71-.044v-.228c0-.29-.185-.451-.537-.451-.29 0-.494.105-.55.296h-.5c.056-.438.476-.728 1.075-.728.66 0 1.031.327 1.031.877v1.791h-.5v-.37h-.044Zm2.786 5.016c1.495.327 2.088.92 2.088 1.939 0 1.328-1.044 2.162-2.644 2.162-1.568 0-2.612-.803-2.699-2.044h.896c.105.771.82 1.24 1.853 1.24.97 0 1.68-.512 1.68-1.216 0-.6-.402-1-1.396-1.217l-.797-.173c-1.44-.315-2.063-.97-2.063-1.989 0-1.18 1.044-2.013 2.532-2.013 1.433 0 2.465.858 2.508 2.075h-.896c-.08-.79-.698-1.272-1.636-1.272-.896 0-1.588.438-1.588 1.167 0 .562.383.951 1.365 1.168l.797.173Z" clip-rule="evenodd"/></svg>