<svg xmlns="http://www.w3.org/2000/svg" width="24" height="24" fill="none"><path fill="#171917" d="M14.4 0c3.36 0 5.04 0 6.324.654a6 6 0 0 1 2.622 2.622C24 4.56 24 6.24 24 9.6v4.8c0 3.36 0 5.04-.654 6.324a6 6 0 0 1-2.622 2.622C19.44 24 17.76 24 14.4 24H9.6c-3.36 0-5.04 0-6.324-.654a6 6 0 0 1-2.622-2.622C0 19.44 0 17.76 0 14.4V9.6c0-3.36 0-5.04.654-6.324A6 6 0 0 1 3.276.654C4.56 0 6.24 0 9.6 0h4.8ZM8.45 9.907c-2.33 0-3.783 1.638-3.783 4.242 0 2.605 1.454 4.236 3.783 4.236 2.33 0 3.783-1.638 3.783-4.236 0-2.523-1.364-4.138-3.567-4.237l-.216-.005Zm7.61.007c-1.701 0-2.895.954-2.895 2.302 0 1.164.714 1.912 2.358 2.272l.91.197c1.137.248 1.596.707 1.596 1.391 0 .805-.812 1.39-1.92 1.39-1.179 0-1.998-.535-2.118-1.417h-1.023c.098 1.418 1.292 2.336 3.085 2.336 1.828 0 3.021-.954 3.021-2.47 0-1.165-.678-1.844-2.386-2.218l-.91-.197c-1.123-.247-1.561-.692-1.561-1.334 0-.833.79-1.334 1.814-1.334 1.073 0 1.78.55 1.871 1.454h1.023c-.05-1.39-1.228-2.372-2.865-2.372Zm-7.61.94c1.68 0 2.732 1.27 2.732 3.296 0 1.955-.987 3.209-2.576 3.286l-.156.003c-1.68 0-2.731-1.278-2.731-3.29 0-2.025 1.051-3.295 2.731-3.295Zm7.772-5.513c-.875-.008-1.412.586-1.412 1.538 0 .974.537 1.567 1.412 1.567.74 0 1.207-.415 1.285-1.008h-.58c-.077.324-.331.5-.705.5-.494 0-.798-.402-.798-1.058 0-.65.304-1.038.798-1.038.395 0 .642.226.706.515h.579c-.078-.578-.53-1.016-1.285-1.016Zm-3.276 0c-.684 0-1.163.331-1.227.832h.571c.064-.22.297-.339.629-.339.402 0 .613.184.613.516v.26l-.811.05c-.713.043-1.116.353-1.116.897-.006.536.417.881.996.881.395 0 .72-.169.903-.472h.05v.424h.572V6.343c0-.629-.425-1.002-1.18-1.002Zm-2.971-.008c-.416 0-.762.212-.91.536h-.05c-.134-.324-.417-.536-.827-.536-.401 0-.705.198-.832.537h-.042v-.48l-.572.006V8.39h.593V6.554c0-.388.275-.698.635-.699.353 0 .579.213.579.551V8.39h.579V6.498c0-.36.247-.643.636-.643.387 0 .578.198.578.615v1.92h.593V6.32c0-.62-.353-.988-.96-.988Zm3.55 1.951c0 .117-.03.225-.085.319-.126.217-.381.358-.692.358-.325 0-.558-.155-.558-.437a.408.408 0 0 1 .051-.21c.08-.136.258-.215.549-.235l.734-.05v.255Z"/></svg>