<svg xmlns="http://www.w3.org/2000/svg" width="24" height="24" fill="none"><path fill="#171917" d="M4.233 4.389a.75.75 0 0 1 1.07 1.05 9.365 9.365 0 0 0 0 13.12.75.75 0 0 1-1.07 1.052 10.865 10.865 0 0 1 0-15.222Zm14.474-.01a.75.75 0 0 1 1.06.01 10.864 10.864 0 0 1 0 15.222.75.75 0 0 1-1.07-1.051 9.364 9.364 0 0 0 0-13.12.75.75 0 0 1 .01-1.061ZM6.59 7.16a.75.75 0 1 1 1.117 1 5.755 5.755 0 0 0 0 7.678.75.75 0 0 1-1.117 1 7.256 7.256 0 0 1 0-9.678Zm9.762-.058a.75.75 0 0 1 1.06.058 7.254 7.254 0 0 1 0 9.679.75.75 0 1 1-1.118-1.001 5.755 5.755 0 0 0 0-7.678.75.75 0 0 1 .058-1.058ZM12 8.357a3.644 3.644 0 1 1 0 7.288 3.644 3.644 0 0 1 0-7.288Zm0 1.5a2.143 2.143 0 1 0 0 4.286 2.143 2.143 0 0 0 0-4.286Z"/></svg>