<svg xmlns="http://www.w3.org/2000/svg" width="24" height="24" fill="none"><path fill="#171917" fill-rule="evenodd" d="M16.5 4.385c0-.39-.29-.635-.563-.635H8.064c-.274 0-.563.246-.563.635v15.23c0 .39.29.635.563.635h7.874c.274 0 .563-.246.563-.635V4.385Zm-.563-2.135c1.177 0 2.063.994 2.063 2.135v15.23c0 1.141-.886 2.135-2.063 2.135H8.064C6.886 21.75 6 20.756 6 19.615V4.385c0-1.141.886-2.135 2.063-2.135h7.874Z" clip-rule="evenodd"/><path fill="#171917" d="M10.5 6a.75.75 0 0 1 .75-.75h1.5a.75.75 0 0 1 0 1.5h-1.5A.75.75 0 0 1 10.5 6Z"/></svg>