<svg xmlns="http://www.w3.org/2000/svg" width="40" height="40" fill="none"><g clip-path="url(#a)"><path fill="#000" d="M0 16c0-5.6 0-8.4 1.09-10.54a10 10 0 0 1 4.37-4.37C7.6 0 10.4 0 16 0h8c5.6 0 8.4 0 10.54 1.09a10 10 0 0 1 4.37 4.37C40 7.6 40 10.4 40 16v8c0 5.6 0 8.4-1.09 10.54a10.001 10.001 0 0 1-4.37 4.37C32.4 40 29.6 40 24 40h-8c-5.6 0-8.4 0-10.54-1.09a10 10 0 0 1-4.37-4.37C0 32.4 0 29.6 0 24v-8Z"/><g clip-path="url(#b)"><path fill="#1ED760" d="M20 4.93C11.681 4.93 4.93 11.683 4.93 20c0 8.319 6.751 15.07 15.07 15.07 8.319 0 15.07-6.751 15.07-15.07 0-8.319-6.751-15.07-15.07-15.07Z"/><path fill="#000" d="M29.637 18.487c-.316 0-.51-.079-.784-.237-4.326-2.582-12.061-3.202-17.068-1.805-.219.061-.492.158-.784.158-.802 0-1.416-.626-1.416-1.434 0-.826.51-1.294 1.057-1.452 2.14-.626 4.533-.924 7.14-.924 4.436 0 9.084.924 12.481 2.905.474.273.784.65.784 1.373 0 .827-.669 1.416-1.41 1.416Zm-1.884 4.63c-.316 0-.528-.14-.747-.255-3.798-2.248-9.46-3.154-14.498-1.786-.292.079-.45.158-.723.158a1.18 1.18 0 0 1-1.18-1.18c0-.65.317-1.08.943-1.257 1.689-.474 3.415-.826 5.943-.826 3.943 0 7.753.978 10.755 2.764.492.292.686.669.686 1.197a1.177 1.177 0 0 1-1.178 1.185Zm-1.634 3.986c-.255 0-.413-.079-.65-.218-3.792-2.285-8.203-2.382-12.56-1.49-.237.062-.547.159-.723.159a.946.946 0 0 1-.96-.96c0-.626.37-.924.826-1.021 4.977-1.1 10.063-1.003 14.401 1.592.37.237.59.45.59 1.003a.918.918 0 0 1-.924.935Z"/></g></g><defs><clipPath id="a"><path fill="#fff" d="M0 0h40v40H0z"/></clipPath><clipPath id="b"><path fill="#fff" d="M4.93 4.444h30.14v31.111H4.93z"/></clipPath></defs></svg>