<svg xmlns="http://www.w3.org/2000/svg" width="24" height="24" fill="none"><g clip-path="url(#a)"><path fill="#171917" d="M14.4 0c3.36 0 5.04 0 6.324.654a6 6 0 0 1 2.622 2.622C24 4.56 24 6.24 24 9.6v4.8c0 3.36 0 5.04-.654 6.324a6 6 0 0 1-2.622 2.622C19.44 24 17.76 24 14.4 24H9.6c-3.36 0-5.04 0-6.324-.654a6 6 0 0 1-2.622-2.622C0 19.44 0 17.76 0 14.4V9.6c0-3.36 0-5.04.654-6.324A6 6 0 0 1 3.276.654C4.56 0 6.24 0 9.6 0h4.8ZM12 2.958c-4.991 0-9.042 4.05-9.042 9.042 0 4.991 4.05 9.042 9.042 9.042 4.991 0 9.042-4.05 9.042-9.042 0-4.991-4.05-9.042-9.042-9.042ZM7.231 14.144c2.986-.66 6.038-.602 8.641.955.222.142.354.27.354.601 0 .332-.26.562-.555.562-.153 0-.248-.047-.39-.131-2.275-1.371-4.922-1.43-7.536-.894-.142.037-.328.095-.433.095a.568.568 0 0 1-.577-.576c0-.375.223-.554.496-.612Zm3.263-3.362c2.366 0 4.652.588 6.453 1.66.296.174.412.4.412.717a.706.706 0 0 1-.707.711c-.19 0-.317-.084-.448-.153-2.279-1.35-5.677-1.892-8.7-1.072-.174.048-.269.095-.433.095a.709.709 0 0 1-.708-.707c0-.39.19-.649.566-.755a12.263 12.263 0 0 1 3.565-.496Zm.175-3.106c2.661 0 5.451.554 7.49 1.743.283.164.469.39.469.824a.844.844 0 0 1-1.317.707C14.716 9.4 10.075 9.03 7.071 9.867c-.13.037-.295.095-.47.095a.841.841 0 0 1-.85-.86c0-.496.307-.777.635-.872 1.283-.375 2.72-.554 4.283-.554Z"/></g><defs><clipPath id="a"><path fill="#fff" d="M0 0h24v24H0z"/></clipPath></defs></svg>