<svg xmlns="http://www.w3.org/2000/svg" width="24" height="24" fill="none"><path fill="#171917" fill-rule="evenodd" d="M10.224 3c-.25 0-.491.1-.671.283a.994.994 0 0 0-.284.698v9.346a.75.75 0 0 1-1.39.392l-1.592-2.596a.958.958 0 0 0-.59-.466.933.933 0 0 0-.715.097.977.977 0 0 0-.448.592c-.068.253-.034.523.093.749l.378.675c1.407 2.518 2.327 4.163 3.288 5.224.503.554.994.919 1.545 1.151.556.235 1.218.355 2.091.355.796 0 1.584-.16 2.32-.468a6.066 6.066 0 0 0 1.969-1.336 6.182 6.182 0 0 0 1.318-2.003c.306-.75.464-1.554.464-2.366V10.21a.994.994 0 0 0-.284-.697.942.942 0 0 0-.671-.283c-.25 0-.492.1-.672.283a.994.994 0 0 0-.283.697.75.75 0 1 1-1.5 0V8.827a.994.994 0 0 0-.284-.698.943.943 0 0 0-.672-.283c-.25 0-.491.1-.671.283a.994.994 0 0 0-.284.698.75.75 0 1 1-1.5 0V3.98a.994.994 0 0 0-.284-.698.942.942 0 0 0-.67-.283Zm2.455 3.542V3.98c0-.655-.256-1.284-.715-1.75a2.443 2.443 0 0 0-1.74-.731c-.655 0-1.28.264-1.74.73a2.494 2.494 0 0 0-.715 1.75v6.69l-.199-.324a2.458 2.458 0 0 0-1.485-1.138 2.433 2.433 0 0 0-1.862.252c-.562.33-.97.87-1.138 1.499-.168.63-.085 1.3.233 1.869m9.361-6.286a2.433 2.433 0 0 1 2.695.535c.258.262.452.575.573.916a2.434 2.434 0 0 1 2.838.468c.459.466.715 1.096.715 1.75v3.116a7.763 7.763 0 0 1-.575 2.933 7.68 7.68 0 0 1-1.639 2.489 7.564 7.564 0 0 1-2.456 1.665 7.484 7.484 0 0 1-2.9.586c-1.011 0-1.885-.14-2.675-.473-.794-.335-1.457-.847-2.073-1.526-1.084-1.194-2.09-2.999-3.447-5.428l-.417-.745" clip-rule="evenodd"/></svg>